<svg xmlns="http://www.w3.org/2000/svg" viewBox="0 0 1024 1024"><rect width="1024" height="1024" fill="#0B0C0B"/><path d="M300 170 H724 V800 L680 760 L636 800 L592 760 L548 800 L504 760 L460 800 L416 760 L372 800 L328 760 L300 800 Z" fill="#D9DDD3"/><rect x="360" y="250" width="300" height="26" fill="#0B0C0B" opacity=".75"/><rect x="360" y="320" width="220" height="26" fill="#0B0C0B" opacity=".75"/><rect x="360" y="390" width="300" height="26" fill="#0B0C0B" opacity=".75"/><rect x="360" y="460" width="160" height="26" fill="#0B0C0B" opacity=".75"/><rect x="130" y="470" width="764" height="30" fill="#FFB547"/><rect x="130" y="440" width="764" height="90" fill="#FFB547" opacity=".18"/><path d="M130 260V130H260" fill="none" stroke="#FFB547" stroke-width="30"/><path d="M894 260V130H764" fill="none" stroke="#FFB547" stroke-width="30"/><path d="M130 764V894H260" fill="none" stroke="#FFB547" stroke-width="30"/><path d="M894 764V894H764" fill="none" stroke="#FFB547" stroke-width="30"/></svg>